<?xml version="1.0" standalone="no"?><!DOCTYPE svg PUBLIC "-//W3C//DTD SVG 1.1//EN" "http://www.w3.org/Graphics/SVG/1.1/DTD/svg11.dtd"><svg t="1756649854991" class="icon" viewBox="0 0 1024 1024" version="1.1" xmlns="http://www.w3.org/2000/svg" p-id="4158" xmlns:xlink="http://www.w3.org/1999/xlink" width="256" height="256"><path d="M213.333333 128a85.333333 85.333333 0 0 0-85.333333 85.333333v597.333334a85.333333 85.333333 0 0 0 85.333333 85.333333h597.333334a85.333333 85.333333 0 0 0 85.333333-85.333333V213.333333a85.333333 85.333333 0 0 0-85.333333-85.333333H213.333333z m0 64h597.333334c11.754667 0 21.333333 9.578667 21.333333 21.333333v597.333334c0 11.754667-9.578667 21.333333-21.333333 21.333333H213.333333c-11.754667 0-21.333333-9.578667-21.333333-21.333333V213.333333c0-11.754667 9.578667-21.333333 21.333333-21.333333z m64 106.666667a21.333333 21.333333 0 0 0-21.333333 21.333333v128a21.333333 21.333333 0 0 0 21.333333 21.333333h149.333334v-149.333333a21.333333 21.333333 0 0 0-21.333334-21.333333h-128z m149.333334 170.666666v85.333334h-64a21.333333 21.333333 0 0 0-21.333334 21.333333v160a32 32 0 1 0 64 0V704h213.333334v32a32 32 0 1 0 64 0V576a21.333333 21.333333 0 0 0-21.333334-21.333333h-64v-85.333334h-170.666666z m170.666666 0h149.333334a21.333333 21.333333 0 0 0 21.333333-21.333333v-128a21.333333 21.333333 0 0 0-21.333333-21.333333h-128a21.333333 21.333333 0 0 0-21.333334 21.333333v149.333333z" p-id="4159" fill="#0D7906"></path></svg>